<svg xmlns="http://www.w3.org/2000/svg" xmlns:xlink="http://www.w3.org/1999/xlink" width="290" height="100" viewBox="0 0 290 100"><defs><style>.a{fill:#fff;}.b{clip-path:url(#a);}.c{fill:#e83634;}.d{fill:#d62a5d;}.e{fill:#a92663;}.f{fill:#842565;}.g{fill:#672365;}.h{fill:#542263;}.i{fill:#482264;}.j{fill:#3e2164;}</style><clipPath id="a"><rect class="a" width="290" height="100" transform="translate(1630)"/></clipPath></defs><g class="b" transform="translate(-1630)"><g transform="translate(1535.513 342.051)"><g transform="translate(0 -758.051)"><path class="c" d="M-96.453,0-534.422,183.268l183.268,437.969L86.815,437.97Z" transform="translate(534.422)"/></g><g transform="translate(38.827 -719.223)"><path class="d" d="M-119.712-84.4-502.935,75.963-663.295-307.26l383.223-160.359Z" transform="translate(663.295 467.619)"/></g><g transform="translate(77.655 -680.396)"><path class="e" d="M-102.61-72.34-431.087,65.112-568.538-263.365l328.476-137.451Z" transform="translate(568.538 400.816)"/></g><g transform="translate(116.482 -641.569)"><path class="f" d="M-85.509-60.283-359.24,54.259-473.782-219.472l273.731-114.542Z" transform="translate(473.782 334.014)"/></g><g transform="translate(155.309 -602.742)"><path class="g" d="M-68.407-48.227-287.391,43.407l-91.634-218.984,218.984-91.634Z" transform="translate(379.025 267.211)"/></g><g transform="translate(194.136 -563.914)"><path class="h" d="M-51.305-36.17-215.543,32.556l-68.726-164.238,164.238-68.726Z" transform="translate(284.269 200.408)"/></g><g transform="translate(232.963 -525.087)"><path class="i" d="M-34.2-24.113-143.7,21.7-189.513-87.788-80.02-133.6Z" transform="translate(189.513 133.605)"/></g><g transform="translate(271.791 -486.26)"><path class="j" d="M-17.1-12.057-71.848,10.851-94.756-43.894-40.011-66.8Z" transform="translate(94.756 66.803)"/></g></g></g></svg>